<?xml version="1.0" encoding="utf-8"?>
<!-- Generator: Adobe Illustrator 22.0.1, SVG Export Plug-In . SVG Version: 6.00 Build 0)  -->
<svg version="1.1" id="Camada_1" xmlns="http://www.w3.org/2000/svg" xmlns:xlink="http://www.w3.org/1999/xlink" x="0px" y="0px"
	 viewBox="0 0 170 40" style="enable-background:new 0 0 170 40;" xml:space="preserve">
<style type="text/css">
	.st0{fill:#27BCE6;}
	.st1{fill:#E83D6C;}
</style>
<path class="st0" d="M127,26.7c2.1,0,3.7-1.7,3.7-4c0-2.2-1.5-4-3.7-4c-2.1,0-3.7,1.7-3.7,4C123.2,24.9,124.8,26.7,127,26.7z
	 M127,15.4c4.3,0,7.3,3.2,7.3,7.4c0,4.1-3,7.3-7.3,7.3c-4.3,0-7.3-3.2-7.3-7.4C119.6,18.6,122.6,15.4,127,15.4z M162,26.7
	c2.1,0,3.7-1.7,3.7-4c0-2.2-1.5-4-3.7-4c-2.1,0-3.7,1.7-3.7,4C158.2,24.9,159.8,26.7,162,26.7z M162,15.4c4.3,0,7.3,3.2,7.3,7.4
	c0,4.1-3,7.3-7.3,7.3c-4.3,0-7.3-3.2-7.3-7.4C154.6,18.6,157.6,15.4,162,15.4z M80.8,13.9c1.2,0,2.2-1,2.2-2.2
	c0-1.1-0.9-2.1-2.2-2.1c-1.2,0-2.2,0.9-2.2,2.1C78.6,13,79.5,13.9,80.8,13.9z M96.3,22.7c0-2.2-1.5-4-3.9-4c-2.3,0-3.8,1.7-3.8,4
	c0,2.3,1.5,4,3.8,4C94.7,26.7,96.3,25,96.3,22.7z M91.6,30.1c-3.5,0-6.6-3.1-6.6-7.4c0-4.2,2.9-7.3,6.6-7.3c2.1,0,3.6,0.7,4.7,2.1
	v-1.7h3.5v14.1h-3.5V28C95.2,29.4,93.7,30.1,91.6,30.1z M31.2,14.8l-13.4,5.5v4.1L28,20.3c-0.2,6.3-5.4,11.4-11.7,11.4
	c-6.4,0-11.7-5.3-11.7-11.8c0-6.5,5.2-11.8,11.7-11.8c2.7,0,4.5,0.6,6.3,2l4.1-1.7c-2.3-2.5-6-4.2-10.4-4.2c-8.7,0-15.8,7-15.8,15.7
	c0,8.7,7.1,15.7,15.7,15.7S32,28.5,32,19.9C32,18.1,31.8,16.4,31.2,14.8z M141.7,27.4l2.1-2.3c1,1,2.3,1.8,3.9,1.8
	c1,0,1.8-0.4,1.8-1.1c0-0.9-0.4-1.2-2.3-1.9c-3.2-1.2-4.6-2.2-4.6-4.5c0-2.3,2.2-4.1,5.3-4.1c2,0,3.7,0.7,5,2l-1.8,2.2
	c-1-0.9-2-1.2-3.2-1.2c-1.2,0-1.7,0.5-1.7,1.1c0,1,1,1.1,2.9,1.9c2.6,1.1,4.1,2,4.1,4.5c0,2.4-1.8,4.3-5.4,4.3
	C145,30.1,143.1,28.9,141.7,27.4z M140,29.7h-3.6V10.2h3.6V29.7z M106.6,22.7c0,2.2,1.5,4,3.9,4c2.3,0,3.8-1.7,3.8-4
	c0-2.3-1.5-4-3.8-4C108.2,18.7,106.6,20.4,106.6,22.7z M111.3,15.4c3.5,0,6.6,3.1,6.6,7.4c0,4.2-2.8,7.3-6.6,7.3
	c-2.1,0-3.6-0.7-4.7-2v1.7h-3.5V10.2h3.6v7.2C107.8,16,109.3,15.4,111.3,15.4z M82.6,29.7h-3.6V15.7h3.6V29.7z M62.9,23.5v-7.8h3.6
	v7.8c0,2.1,1.1,3.3,2.9,3.3c1.7,0,2.9-1.2,2.9-3.3v-7.8H76v7.8c0,4.3-2.6,6.6-6.6,6.6S62.9,27.8,62.9,23.5z M51.6,30.1
	c-5.8,0-9.6-4.1-9.6-9.8c0-5.8,4.3-9.9,9.8-9.9c3.1,0,5.8,1.3,7.5,3.2l-2.3,2.6c-1.5-1.4-3.2-2.1-5.2-2.1c-3.4,0-5.9,2.5-5.9,6.2
	c0,3.4,2.3,6.1,5.8,6.1c2,0,3.6-0.6,4.8-1.7v-2.6h-5v-3.3h8.6v7.7C57.8,28.7,55,30.1,51.6,30.1z"/>
<polygon class="st1" points="32,8.2 17.8,14.1 17.8,18.2 32,12.4 "/>
</svg>
